<?xml version="1.0" encoding="UTF-8"?>
<svg id="Layer_1" xmlns="http://www.w3.org/2000/svg" version="1.1" viewBox="0 0 354 354">
  <!-- Generator: Adobe Illustrator 30.3.0, SVG Export Plug-In . SVG Version: 2.1.3 Build 182)  -->
  <defs>
    <style>
      .st0 {
        fill: #ff3c00;
      }

      .st1 {
        fill: #faf6f1;
      }
    </style>
  </defs>
  <rect class="st0" width="354" height="354" rx="80" ry="80"/>
  <path class="st1" d="M182.78,135.08v1.58c.2,2.5,1.25,5.06,2.89,6.96.26.33.53.53.99,1.05,2.17,2.17,5.12,3.35,8.21,3.35h33.24c6.64,0,9.99,0,12.48,1.31,2.23,1.12,4.07,2.96,5.19,5.19,1.31,2.56,1.31,5.85,1.31,12.48v20.04c0,6.64,0,9.92-1.31,12.48-1.12,2.23-2.96,4.01-5.19,5.19-2.56,1.31-5.85,1.31-12.48,1.31h-33.38c-3.02,0-5.98,1.18-8.15,3.29-.46.46-.72.72-.99,1.05-1.64,1.91-2.69,4.47-2.89,6.96v29.17c0,6.64,0,9.92-1.31,12.48-1.12,2.23-2.96,4.01-5.19,5.19-2.56,1.31-5.85,1.31-12.48,1.31h-27c-6.64,0-9.99,0-12.48-1.31-2.23-1.12-4.07-2.96-5.19-5.19-1.31-2.56-1.31-5.85-1.31-12.48v-21.42c0-6.64,0-9.92,1.31-12.48,1.12-2.23,2.96-4.01,5.19-5.19,2.56-1.31,5.85-1.31,12.48-1.31h33.77c2.96,0,5.91-1.31,8.08-3.35.07-.07.13-.13.2-.13.59-.59.85-.85,1.18-1.18,1.58-1.84,2.63-4.34,2.83-6.77v-35.41c-.2-2.43-1.25-4.93-2.83-6.77-.33-.33-.59-.66-1.18-1.25-2.17-2.17-5.12-3.35-8.21-3.35h-33.77c-6.64,0-9.99,0-12.48-1.31-2.23-1.12-4.07-2.96-5.19-5.19-1.31-2.56-1.31-5.85-1.31-12.48v-21.42c0-6.64,0-9.92,1.31-12.48,1.12-2.23,2.96-4.01,5.19-5.19,2.56-1.31,5.85-1.31,12.48-1.31h27c6.64,0,9.99,0,12.48,1.31,2.23,1.12,4.07,2.96,5.19,5.19,1.31,2.56,1.31,5.85,1.31,12.48v27.59Z"/>
</svg>